<!DOCTYPE svg PUBLIC "-//W3C//DTD SVG 20010904//EN" "http://www.w3.org/TR/2001/REC-SVG-20010904/DTD/svg10.dtd">
<svg version="1.0" xmlns="http://www.w3.org/2000/svg" width="256px" height="256px" viewBox="0 0 2560 2560" preserveAspectRatio="xMidYMid meet">
<g id="layer1" fill="#01a9e5" stroke="none">
 <path d="M1044 805 c-19 -29 -73 -35 -94 -10 -28 34 -88 -3 -77 -46 9 -32 -21 -65 -55 -61 -22 3 -30 -2 -38 -23 -15 -40 -12 -54 15 -67 30 -14 34 -61 8 -90 -13 -15 -15 -25 -7 -46 8 -22 16 -27 45 -27 45 0 69 -19 69 -56 0 -46 63 -68 87 -30 18 29 64 33 91 8 22 -20 24 -20 50 -5 21 13 27 25 27 51 0 43 18 65 58 69 24 2 34 9 42 32 8 25 6 31 -18 50 -33 26 -35 61 -6 92 20 21 20 23 4 54 -14 27 -20 30 -45 25 -41 -9 -70 12 -70 53 0 26 -5 35 -26 42 -36 14 -42 13 -60 -15z m15 -160 c46 -23 54 -83 16 -120 -65 -66 -168 14 -124 96 19 37 65 47 108 24z"/>
 </g>
<g id="layer2" fill="#005b8c" stroke="none">
 <path d="M1650 2120 c0 -5 5 -10 10 -10 6 0 10 5 10 10 0 6 -4 10 -10 10 -5 0 -10 -4 -10 -10z"/>
 <path d="M2380 1121 c0 -5 5 -13 10 -16 6 -3 10 -2 10 4 0 5 -4 13 -10 16 -5 3 -10 2 -10 -4z"/>
 <path d="M1653 1018 c-6 -7 -14 -23 -17 -34 -9 -31 -55 -48 -91 -34 -25 10 -32 8 -53 -14 -22 -22 -24 -28 -13 -53 16 -40 1 -78 -38 -91 -26 -9 -31 -16 -31 -44 0 -37 15 -58 41 -58 27 0 44 -54 29 -91 -12 -28 -11 -33 14 -57 25 -25 27 -26 52 -11 37 23 82 5 92 -36 7 -27 12 -30 47 -30 24 0 40 6 45 15 21 46 29 55 53 61 15 4 36 1 53 -7 26 -14 29 -13 53 11 25 24 25 27 10 53 -13 23 -13 32 -2 60 8 19 20 32 31 32 27 0 42 20 42 58 0 28 -5 35 -30 44 -17 5 -37 22 -45 37 -12 24 -12 32 1 56 14 27 13 30 -10 54 -23 22 -28 23 -50 12 -29 -16 -75 -4 -88 22 -4 9 -12 25 -17 35 -10 21 -64 28 -78 10z m84 -200 c27 -13 46 -66 38 -101 -4 -14 -17 -35 -30 -47 -20 -19 -31 -21 -69 -16 -40 6 -47 11 -65 48 -20 40 -20 41 -1 78 29 56 67 68 127 38z"/>
 <path d="M520 541 c0 -5 5 -13 10 -16 6 -3 10 -2 10 4 0 5 -4 13 -10 16 -5 3 -10 2 -10 -4z"/>
 <path d="M2027 523 c-4 -3 -7 -11 -7 -17 0 -6 5 -5 12 2 6 6 9 14 7 17 -3 3 -9 2 -12 -2z"/>
 <path d="M1480 360 c0 -5 7 -10 15 -10 8 0 15 5 15 10 0 6 -7 10 -15 10 -8 0 -15 -4 -15 -10z"/>
 </g>
<g id="layer3" fill="#018fab" stroke="none">
 <path d="M1131 1688 c-5 -13 -10 -32 -12 -43 -6 -32 -45 -31 -73 1 l-24 28 -40 -18 c-64 -29 -78 -49 -64 -93 16 -52 1 -67 -51 -51 -44 14 -64 0 -93 -64 l-18 -40 28 -24 c39 -34 32 -64 -19 -78 l-40 -12 0 -63 0 -64 41 -14 c45 -15 67 -51 36 -60 -9 -2 -22 -16 -29 -30 -10 -21 -9 -31 7 -62 28 -57 43 -65 90 -53 50 13 64 0 50 -49 -15 -52 -13 -55 36 -83 58 -32 65 -32 94 -1 34 36 61 29 74 -20 l12 -40 64 0 65 0 13 43 c16 49 37 54 72 17 29 -31 41 -31 96 1 40 24 44 29 44 64 0 22 -5 42 -10 45 -8 5 -7 11 1 21 8 10 15 12 23 4 5 -5 27 -10 47 -10 33 0 40 5 63 44 32 55 32 67 1 96 -37 35 -32 56 18 72 34 11 43 18 45 40 3 25 5 26 28 16 19 -9 27 -8 42 5 22 20 60 12 83 -17 14 -18 20 -19 43 -8 17 8 26 19 26 36 0 32 21 47 61 44 28 -3 34 1 43 24 7 20 6 31 -5 44 -19 23 -13 55 14 76 18 14 20 21 12 45 -7 19 -19 29 -35 31 -38 6 -52 22 -46 54 4 22 0 31 -20 44 -23 15 -26 15 -43 0 -27 -25 -66 -20 -79 9 -13 28 -19 29 -56 15 -20 -7 -26 -17 -26 -39 0 -35 -14 -46 -54 -43 -20 2 -33 -4 -43 -18 -14 -20 -16 -20 -28 -4 -10 15 -18 16 -56 6 -59 -15 -69 -5 -56 53 11 50 9 53 -60 90 -33 18 -33 18 -61 -8 -42 -40 -67 -36 -84 16 l-13 42 -63 3 c-57 3 -63 1 -71 -20z m738 -260 c33 -59 -28 -120 -87 -87 -21 11 -28 24 -30 53 -4 51 12 68 62 64 32 -2 44 -9 55 -30z m-588 -64 c91 -46 103 -187 22 -253 -119 -98 -293 11 -253 159 27 101 135 144 231 94z m322 -34 c3 -11 1 -18 -4 -14 -5 3 -9 12 -9 20 0 20 7 17 13 -6z m64 -26 c-3 -3 -12 -4 -19 -1 -8 3 -5 6 6 6 11 1 17 -2 13 -5z"/>
 </g>
<g id="layer4" fill="#016a8b" stroke="none">
 <path d="M2162 2333 c-118 -58 -119 -228 -2 -290 100 -53 219 -4 249 103 19 68 -15 143 -83 185 -39 24 -118 25 -164 2z m143 -93 c27 -30 25 -88 -4 -111 -32 -26 -89 -25 -118 3 -29 27 -31 80 -3 108 28 28 100 28 125 0z"/>
 <path d="M1734 2185 c-78 -35 -128 -114 -127 -196 2 -117 95 -202 218 -202 99 0 178 54 210 143 33 92 -10 198 -100 244 -50 26 -156 32 -201 11z m168 -91 c56 -29 73 -104 38 -162 -55 -90 -208 -75 -240 24 -38 114 86 197 202 138z"/>
 <path d="M1053 1886 c-116 -28 -244 -120 -309 -222 l-33 -51 -55 8 c-148 20 -299 -35 -415 -152 -200 -203 -197 -527 8 -729 65 -65 177 -130 222 -130 14 0 25 -12 35 -37 36 -89 58 -125 113 -184 112 -122 253 -183 426 -183 147 0 244 32 357 120 l57 44 58 -30 c173 -89 402 -28 497 134 23 40 31 45 89 59 85 22 149 59 215 126 87 88 131 210 119 331 -9 83 -65 187 -138 254 -33 31 -64 56 -68 56 -5 0 -14 35 -20 77 -15 99 -51 173 -122 245 -119 122 -290 162 -456 107 -32 -10 -35 -9 -86 38 -103 93 -211 134 -357 132 -47 0 -108 -6 -137 -13z m290 -98 c78 -25 132 -60 189 -121 l47 -51 63 22 c91 31 127 35 198 22 169 -31 274 -150 287 -326 l6 -75 51 -33 c117 -76 161 -154 161 -286 0 -70 -4 -94 -24 -135 -49 -97 -160 -179 -264 -192 -60 -8 -71 -16 -106 -78 -53 -94 -144 -147 -256 -148 -73 0 -134 19 -194 63 -40 28 -62 25 -97 -11 -16 -18 -51 -46 -79 -64 -248 -160 -586 -80 -710 167 -19 39 -35 79 -35 89 0 24 -42 55 -87 64 -94 17 -216 113 -263 205 -110 216 -24 494 184 591 87 41 179 54 262 39 35 -7 70 -10 78 -7 8 3 29 33 46 66 100 186 328 270 543 199z"/>
 <path d="M452 1314 c-14 -9 -22 -26 -22 -43 0 -34 -19 -45 -73 -46 -30 0 -41 -5 -55 -27 -15 -25 -15 -28 1 -46 9 -10 17 -34 17 -53 0 -27 -6 -37 -30 -51 -26 -15 -30 -21 -24 -45 10 -41 12 -43 44 -43 37 0 63 -36 58 -81 -2 -25 3 -36 24 -52 l28 -21 22 21 c33 30 84 21 104 -18 12 -25 19 -28 42 -23 39 10 52 23 52 54 0 34 35 61 65 49 35 -14 45 -10 62 26 15 32 15 36 0 53 -27 30 -21 72 13 101 26 23 29 30 22 56 -7 25 -14 31 -42 33 -45 5 -62 27 -55 74 4 30 1 40 -17 52 -28 20 -52 20 -68 1 -20 -25 -59 -18 -88 15 -30 34 -48 37 -80 14z m143 -199 c61 -60 2 -159 -84 -140 -38 8 -52 25 -58 74 -5 33 -1 44 20 65 35 35 89 35 122 1z"/>
 <path d="M1820 940 c0 -5 5 -10 10 -10 6 0 10 5 10 10 0 6 -4 10 -10 10 -5 0 -10 -4 -10 -10z"/>
 <path d="M1880 890 c0 -5 5 -10 10 -10 6 0 10 5 10 10 0 6 -4 10 -10 10 -5 0 -10 -4 -10 -10z"/>
 <path d="M1670 845 c0 -8 5 -15 10 -15 6 0 10 7 10 15 0 8 -4 15 -10 15 -5 0 -10 -7 -10 -15z"/>
 <path d="M1620 660 c0 -5 5 -10 10 -10 6 0 10 5 10 10 0 6 -4 10 -10 10 -5 0 -10 -4 -10 -10z"/>
 <path d="M1710 645 c0 -8 5 -15 10 -15 6 0 10 7 10 15 0 8 -4 15 -10 15 -5 0 -10 -7 -10 -15z"/>
 <path d="M1760 545 c0 -8 5 -15 10 -15 6 0 10 7 10 15 0 8 -4 15 -10 15 -5 0 -10 -7 -10 -15z"/>
 <path d="M1830 540 c0 -5 5 -10 10 -10 6 0 10 5 10 10 0 6 -4 10 -10 10 -5 0 -10 -4 -10 -10z"/>
 </g>
<g id="layer5" fill="#ffffff" stroke="none">
 <path d="M2169 2251 c-40 -41 -40 -89 2 -130 42 -42 95 -43 141 -2 25 22 32 37 32 65 0 87 -111 130 -175 67z"/>
 <path d="M1787 2130 c-46 -14 -95 -57 -107 -95 -43 -131 132 -239 240 -148 62 52 76 116 37 173 -38 57 -112 88 -170 70z"/>
 <path d="M1116 1829 c-129 -19 -273 -120 -333 -235 -30 -59 -33 -59 -115 -43 -121 25 -278 -28 -374 -126 -115 -118 -158 -275 -118 -428 22 -85 45 -126 109 -195 56 -61 135 -108 223 -134 40 -12 45 -17 61 -63 26 -78 65 -137 131 -198 199 -185 497 -181 703 10 l48 44 32 -21 c18 -12 57 -33 87 -47 139 -67 316 -6 397 135 15 26 28 49 30 51 1 2 25 8 53 12 117 18 239 108 290 214 35 70 35 196 1 273 -24 53 -130 164 -169 176 -16 5 -20 19 -25 81 -7 100 -44 180 -111 244 -65 61 -114 86 -196 101 -71 13 -107 9 -198 -23 l-64 -21 -34 41 c-94 113 -268 175 -428 152z m148 -184 c15 -53 54 -60 97 -19 l29 28 38 -22 c36 -21 37 -23 34 -70 -4 -65 17 -86 72 -71 42 12 43 11 74 -42 l22 -36 -31 -29 c-43 -41 -37 -75 17 -92 45 -14 54 -32 44 -86 -4 -22 -12 -32 -33 -37 -64 -17 -72 -47 -27 -94 l29 -30 -25 -43 c-16 -26 -32 -42 -45 -42 -24 0 -25 -27 -1 -34 11 -4 35 0 55 9 26 11 37 22 42 45 5 25 12 30 35 30 23 0 29 -5 34 -30 4 -24 15 -35 43 -46 34 -14 40 -14 64 0 25 15 28 14 45 -5 15 -17 16 -24 6 -39 -7 -11 -12 -27 -12 -35 0 -30 29 -73 55 -79 20 -5 25 -13 25 -36 0 -22 -5 -30 -18 -30 -41 0 -71 -65 -51 -111 10 -26 10 -33 -4 -47 -14 -13 -20 -14 -41 -3 -43 23 -116 -9 -116 -51 0 -13 -7 -18 -27 -18 -22 0 -31 8 -43 33 -19 40 -68 57 -105 37 -21 -11 -27 -11 -44 4 -18 17 -18 19 -3 47 16 27 16 31 -3 66 -12 24 -28 39 -42 41 -18 3 -23 10 -23 33 0 23 5 30 26 35 46 12 71 114 28 114 -9 0 -14 -7 -12 -17 3 -13 -10 -26 -42 -45 l-45 -27 -31 30 c-46 45 -76 31 -98 -43 -4 -14 -16 -18 -55 -18 -47 0 -51 2 -57 28 -8 34 -32 62 -54 62 -9 0 -29 -13 -45 -30 l-28 -30 -36 22 c-53 31 -54 32 -42 74 9 32 8 41 -7 57 -14 16 -25 18 -64 13 l-47 -7 -21 42 -22 41 27 28 c41 42 32 79 -22 98 -43 14 -43 14 -43 62 0 48 0 48 43 62 35 11 43 18 45 43 3 23 -3 35 -24 52 l-28 22 22 46 c23 47 33 52 78 35 24 -9 31 -7 51 13 20 20 22 27 13 51 -17 45 -12 55 35 78 l46 22 22 -28 c17 -21 29 -27 52 -24 25 2 32 10 44 46 l13 43 51 -3 c49 -3 50 -4 61 -43z m530 -70 c19 -29 60 -33 86 -10 24 22 51 9 44 -20 -8 -32 22 -75 52 -75 34 0 43 -30 16 -48 -26 -17 -30 -73 -7 -92 24 -20 1 -52 -31 -44 -29 7 -74 -28 -74 -58 0 -27 -27 -33 -48 -10 -26 30 -66 36 -87 12 -23 -25 -54 -8 -47 26 6 33 -23 74 -52 74 -35 0 -41 28 -11 52 29 22 32 53 9 79 -24 26 -11 49 27 49 39 0 69 25 69 56 0 20 10 31 31 33 4 1 14 -10 23 -24z m-1276 -289 c16 -36 76 -46 104 -18 17 17 25 18 45 9 20 -9 22 -15 17 -43 -8 -45 26 -94 66 -94 43 0 48 -38 10 -68 -35 -27 -41 -74 -13 -104 13 -15 14 -23 5 -42 -9 -21 -16 -24 -44 -20 -44 8 -88 -26 -88 -66 0 -41 -41 -47 -69 -10 -27 37 -78 45 -108 18 -17 -16 -25 -18 -41 -9 -17 9 -20 18 -15 44 4 26 -1 40 -22 65 -16 19 -36 32 -50 32 -15 0 -25 7 -28 22 -4 12 -5 23 -4 23 41 19 57 39 57 72 0 20 -8 45 -17 55 -25 28 -5 54 37 50 44 -3 90 31 90 68 0 44 50 56 68 16z m576 -482 c9 -4 16 -18 16 -34 0 -37 49 -75 85 -66 18 5 27 1 35 -15 10 -17 8 -25 -9 -43 -29 -31 -27 -70 5 -95 31 -25 28 -55 -6 -59 -39 -6 -80 -50 -77 -85 3 -43 -25 -58 -55 -30 -28 26 -83 21 -99 -9 -15 -28 -53 -20 -57 12 -2 14 -15 37 -29 52 -20 21 -32 26 -53 21 -39 -7 -58 26 -30 52 30 27 26 79 -6 102 -35 26 -26 63 15 63 35 0 71 46 64 82 -7 37 27 55 52 28 26 -29 79 -27 102 5 20 26 23 28 47 19z"/>
 <path d="M1145 1395 c-51 -18 -101 -72 -115 -124 -30 -113 79 -234 196 -216 58 8 130 72 144 127 36 133 -97 260 -225 213z"/>
 <path d="M1470 955 c-13 -15 -7 -45 8 -45 15 0 44 38 37 49 -9 16 -30 14 -45 -4z"/>
 <path d="M1632 834 c-28 -19 -52 -65 -52 -99 0 -15 14 -40 34 -63 30 -32 40 -37 76 -36 74 2 123 70 100 140 -21 64 -105 95 -158 58z"/>
 <path d="M1752 1457 c-34 -36 -30 -89 9 -121 40 -34 74 -33 110 3 36 36 37 70 3 110 -33 40 -89 43 -122 8z"/>
 <path d="M463 1125 c-32 -32 -35 -40 -30 -77 18 -136 207 -119 207 19 0 15 -13 38 -34 59 -48 48 -95 47 -143 -1z"/>
 <path d="M984 670 c-32 -13 -64 -59 -64 -92 0 -42 57 -98 100 -98 37 0 100 55 100 88 0 38 -19 72 -52 92 -36 22 -51 23 -84 10z"/>
 </g>

</svg>